<svg width="646" height="646" viewBox="0 0 646 646" fill="none" xmlns="http://www.w3.org/2000/svg">
<path d="M535.079 140.629C512.788 162.599 477.879 161.5 456.853 138.216C435.823 114.929 436.875 78.4601 459.163 56.4911C481.454 34.522 516.363 35.6205 537.392 58.9076C558.421 82.1948 557.37 118.663 535.079 140.629Z" fill="#BD9E83"/>
<path d="M535.079 140.629C512.788 162.599 477.879 161.5 456.853 138.216C435.823 114.929 436.875 78.4601 459.163 56.4911C481.454 34.522 516.363 35.6204 537.392 58.9076C558.421 82.1948 557.37 118.663 535.079 140.629Z" stroke="#373435" stroke-width="2.9024" stroke-linejoin="round"/>
<path d="M116.397 567.479C116.397 567.479 97.6809 574.729 85.2736 551.222C85.2736 551.222 77.2825 537.162 72.8663 549.025C72.8663 549.025 75.6001 523.541 104.2 525.299C128.591 526.837 130.904 552.76 131.745 557.374C132.376 561.987 116.397 567.479 116.397 567.479Z" fill="#BD9E83"/>
<path d="M116.397 567.479C116.397 567.479 97.6809 574.729 85.2736 551.222C85.2736 551.222 77.2825 537.162 72.8663 549.025C72.8663 549.025 75.6001 523.541 104.2 525.299C128.591 526.837 130.904 552.76 131.745 557.374C132.376 561.987 116.397 567.479 116.397 567.479Z" stroke="#373435" stroke-width="2.9024" stroke-linejoin="round"/>
<path d="M448.862 73.4067C446.128 71.2098 440.66 70.1114 437.506 77.5809C433.51 87.0275 440.66 96.4742 441.922 98.0121C442.553 92.3001 446.969 86.8079 453.067 78.0202L448.862 73.4067Z" fill="#FCD2B5"/>
<path d="M448.862 73.4067C446.128 71.2098 440.66 70.1114 437.506 77.5809C433.51 87.0275 440.66 96.4742 441.922 98.0121C442.553 92.3001 446.969 86.8079 453.067 78.0202L448.862 73.4067Z" stroke="#373435" stroke-width="2.9024" stroke-linejoin="round"/>
<path d="M530.873 145.463C533.396 148.099 535.289 153.371 528.56 157.985C520.148 163.477 510.264 157.546 508.582 156.447C513.839 154.909 518.466 149.637 526.036 141.948L531.083 145.463H530.873Z" fill="#FCD2B5"/>
<path d="M530.873 145.463C533.396 148.099 535.289 153.371 528.56 157.985C520.148 163.477 510.264 157.546 508.582 156.447C513.839 154.909 518.466 149.637 526.036 141.948L531.083 145.463H530.873Z" stroke="#373435" stroke-width="2.9024" stroke-linejoin="round"/>
<path d="M420.472 181.932C420.472 181.932 420.682 182.591 421.313 183.03C421.734 183.469 422.154 183.689 422.785 183.469C424.888 182.81 426.991 181.712 429.304 179.076L424.678 172.924C424.678 172.924 421.103 175.78 420.472 181.932Z" fill="#73D0F6"/>
<path d="M420.472 181.932C420.472 181.932 420.682 182.591 421.313 183.03C421.734 183.469 422.154 183.689 422.785 183.469C424.888 182.81 426.991 181.712 429.304 179.076L424.678 172.924C424.678 172.924 421.103 175.78 420.472 181.932Z" stroke="#373435" stroke-width="2.9024" stroke-linejoin="round"/>
<path d="M441.922 198.188C441.922 198.188 442.342 198.628 442.973 199.067C443.394 199.287 444.025 199.287 444.656 198.847C446.338 197.529 449.282 195.113 450.754 191.817L442.763 189.84C442.763 189.84 440.87 192.037 441.922 198.188Z" fill="#73D0F6"/>
<path d="M441.922 198.188C441.922 198.188 442.342 198.628 442.973 199.067C443.394 199.287 444.025 199.287 444.656 198.847C446.338 197.529 449.282 195.113 450.754 191.817L442.763 189.84C442.763 189.84 440.87 192.037 441.922 198.188Z" stroke="#373435" stroke-width="2.9024" stroke-linejoin="round"/>
<path d="M471.991 185.886L452.857 193.355C452.857 193.355 443.814 194.893 440.45 187.204L438.978 174.242L471.991 185.666V185.886Z" fill="#90C74A"/>
<path d="M471.991 185.886L452.857 193.355C452.857 193.355 443.814 194.893 440.45 187.204L438.978 174.242L471.991 185.666V185.886Z" stroke="#373435" stroke-width="2.9024" stroke-linejoin="round"/>
<path d="M421.103 151.174L422.154 172.924C422.154 172.924 424.468 182.37 433.09 181.711L445.918 176.658L421.103 151.174Z" fill="#90C74A"/>
<path d="M421.103 151.174L422.154 172.924C422.154 172.924 424.468 182.37 433.09 181.711L445.918 176.658L421.103 151.174Z" stroke="#373435" stroke-width="2.9024" stroke-linejoin="round"/>
<path d="M421.523 132.065C405.331 125.474 387.456 117.565 372.735 113.391L373.156 103.065C373.156 103.065 404.069 93.399 446.128 116.906L455.17 125.034L462.107 129.648L478.089 143.046L501.222 151.614C520.779 183.03 519.727 230.263 519.727 230.263L509.423 232.68C503.535 206.976 494.282 191.158 487.342 181.492C483.978 184.568 475.776 188.302 468.626 188.522C423.837 190.06 420.051 148.758 420.051 148.758C420.051 148.758 419.42 137.557 421.523 132.284V132.065Z" fill="#88D6F7"/>
<path d="M421.523 132.065C405.331 125.474 387.456 117.565 372.735 113.391L373.156 103.065C373.156 103.065 404.069 93.399 446.128 116.906L455.17 125.034L462.107 129.648L478.089 143.046L501.222 151.614C520.779 183.03 519.727 230.263 519.727 230.263L509.423 232.68C503.535 206.976 494.282 191.158 487.342 181.492C483.978 184.568 475.776 188.302 468.626 188.522C423.837 190.06 420.051 148.758 420.051 148.758C420.051 148.758 419.42 137.557 421.523 132.284V132.065Z" stroke="#373435" stroke-width="2.9024" stroke-linejoin="round"/>
<path d="M527.087 139.751C507.32 162.599 491.758 167.212 472.621 164.136C466.733 162.379 460.214 158.644 460.214 158.644C433.93 140.41 426.991 108.338 456.642 70.5512C456.642 70.5512 467.995 66.1574 488.604 59.7864C488.604 59.7864 490.496 87.6871 516.993 114.929L519.307 96.4747C519.307 96.4747 535.499 124.156 527.087 139.751Z" fill="#FCD2B5"/>
<path d="M527.087 139.751C507.32 162.599 491.758 167.212 472.621 164.136C466.733 162.379 460.214 158.644 460.214 158.644C433.93 140.41 426.991 108.338 456.642 70.5512C456.642 70.5512 467.995 66.1574 488.604 59.7864C488.604 59.7864 490.496 87.6871 516.993 114.929L519.307 96.4747C519.307 96.4747 535.499 124.156 527.087 139.751Z" stroke="#373435" stroke-width="2.9024" stroke-linejoin="round"/>
<path d="M490.706 178.636C489.445 179.514 489.445 179.514 488.393 180.613C487.132 181.492 487.131 181.492 486.08 182.59L490.706 178.636Z" fill="#BB9085"/>
<path d="M490.706 178.636C489.445 179.514 489.445 179.514 488.393 180.613C487.132 181.492 487.131 181.492 486.08 182.59" stroke="#373435" stroke-width="2.9024" stroke-linecap="round" stroke-linejoin="round"/>
<path d="M422.365 128.989C421.944 130.307 421.944 130.307 421.734 131.405C421.313 132.723 421.313 132.723 421.103 133.822L422.575 128.769L422.365 128.989Z" fill="#BB9085"/>
<path d="M422.365 128.989C421.944 130.307 421.944 130.307 421.734 131.405C421.313 132.723 421.313 132.723 421.103 133.822" stroke="#373435" stroke-width="2.9024" stroke-linecap="round" stroke-linejoin="round"/>
<path d="M472.621 107.02C471.78 108.339 467.364 107.02 462.948 103.945C458.535 100.869 455.591 97.1343 456.642 95.8162C457.483 94.498 461.897 95.8161 466.313 99.1115C470.729 102.187 473.673 105.922 472.621 107.24V107.02Z" fill="#F8B7B3" fill-opacity="0.702"/>
<path d="M467.785 99.3312L471.991 93.6192C471.991 93.6192 470.729 95.1571 467.785 99.3312Z" fill="#FEFEFE"/>
<path d="M471.991 93.3995C471.991 93.3995 470.729 94.9373 467.785 99.1115" stroke="#373435" stroke-width="3.39313" stroke-linecap="round" stroke-linejoin="round"/>
<path d="M510.895 135.8C510.054 137.337 505.638 136.019 501.221 133.163C496.595 130.307 493.651 126.792 494.492 125.254C495.333 123.936 499.749 125.035 504.165 127.891C508.792 130.747 511.736 134.262 510.895 135.8Z" fill="#F8B7B3" fill-opacity="0.702"/>
<path d="M502.483 126.133L506.479 121.081C506.479 121.081 505.427 121.74 502.483 126.133Z" fill="#FEFEFE"/>
<path d="M506.479 121.081C506.479 121.081 505.427 121.74 502.483 126.133" stroke="#373435" stroke-width="3.39313" stroke-linecap="round" stroke-linejoin="round"/>
<path d="M485.449 112.732C483.977 117.785 477.038 108.998 475.566 114.051C474.514 117.126 480.823 121.081 482.716 122.399" stroke="#373435" stroke-width="2.34314" stroke-linecap="round" stroke-linejoin="round"/>
<path d="M259.179 161.94C259.179 161.94 259.81 161.94 260.441 161.72C260.862 161.5 261.493 161.281 261.493 160.622C262.123 158.425 262.334 155.788 261.493 152.493L254.132 153.372C254.132 153.372 254.553 157.985 259.179 161.94Z" fill="#E9EA7D"/>
<path d="M259.179 161.94C259.179 161.94 259.81 161.94 260.441 161.72C260.862 161.5 261.493 161.281 261.493 160.622C262.123 158.425 262.334 155.788 261.493 152.493L254.132 153.372C254.132 153.372 254.553 157.985 259.179 161.94Z" stroke="#373435" stroke-width="2.9024" stroke-linejoin="round"/>
<path d="M283.784 151.614C283.784 151.614 284.415 151.614 285.046 151.175C285.467 150.955 285.887 150.516 285.887 149.637C285.887 147.44 285.256 143.486 283.574 140.63L277.686 146.561C277.686 146.561 278.527 149.417 283.995 151.614H283.784Z" fill="#E9EA7D"/>
<path d="M283.784 151.614C283.784 151.614 284.415 151.614 285.046 151.175C285.467 150.955 285.887 150.516 285.887 149.637C285.887 147.44 285.256 143.486 283.574 140.63L277.686 146.561C277.686 146.561 278.527 149.417 283.995 151.614H283.784Z" stroke="#373435" stroke-width="2.9024" stroke-linejoin="round"/>
<path d="M286.518 99.77L291.775 100.429C291.775 100.429 303.341 116.686 287.779 138.432C275.162 156.008 259.81 157.106 246.562 155.788C237.94 154.909 219.437 141.508 218.596 131.845L216.493 127.451L286.518 99.9897V99.77Z" fill="#F79733"/>
<path d="M286.518 99.77L291.775 100.429C291.775 100.429 303.341 116.686 287.779 138.432C275.162 156.008 259.81 157.106 246.562 155.788C237.94 154.909 219.437 141.508 218.596 131.845L216.493 127.451L286.518 99.9897V99.77Z" stroke="#373435" stroke-width="2.9024" stroke-linejoin="round"/>
<path d="M287.149 124.815C290.724 118.444 292.406 105.922 291.565 101.308C308.178 100.869 321.006 101.748 347.083 110.316L350.865 99.1113C350.865 99.1113 313.646 73.6272 277.896 74.0666L256.657 80.2179L239.413 96.9144L231.424 91.8615L220.279 99.7704C178.851 124.376 175.066 166.993 175.066 166.993L184.108 172.265C200.511 152.493 204.927 142.387 220.489 133.163L231.635 141.289C231.635 141.289 265.068 165.015 287.78 124.815H287.149Z" fill="#F1F2F2"/>
<path d="M287.149 124.815C290.724 118.444 292.406 105.922 291.565 101.308C308.178 100.869 321.006 101.748 347.083 110.316L350.865 99.1113C350.865 99.1113 313.646 73.6272 277.896 74.0666L256.657 80.2179L239.413 96.9144L231.424 91.8615L220.279 99.7704C178.851 124.376 175.066 166.993 175.066 166.993L184.108 172.265C200.511 152.493 204.927 142.387 220.489 133.163L231.635 141.289C231.635 141.289 265.068 165.015 287.78 124.815H287.149Z" stroke="#373435" stroke-width="2.9024" stroke-linejoin="round"/>
<path d="M270.115 11.8972C250.137 -6.11744 234.578 5.96553 234.578 5.96553C201.352 0.253582 188.104 22.4393 183.267 32.3253C183.267 32.3253 176.117 43.0902 173.173 73.6272C173.173 73.6272 173.383 107.24 167.074 110.096C167.074 110.096 187.683 125.474 214.18 107.459C214.18 107.459 290.093 95.1568 315.538 46.3855C315.538 46.3855 304.813 44.4083 295.561 36.0601C283.784 25.5149 275.372 16.291 270.325 11.6775L270.115 11.8972Z" fill="#BD9E83"/>
<path d="M270.115 11.8972C250.137 -6.11744 234.578 5.96553 234.578 5.96553C201.352 0.253581 188.104 22.4393 183.267 32.3253C183.267 32.3253 176.117 43.0902 173.173 73.6272C173.173 73.6272 173.383 107.24 167.074 110.096C167.074 110.096 187.683 125.474 214.18 107.459C214.18 107.459 290.093 95.1568 315.538 46.3855C315.538 46.3855 304.813 44.4083 295.561 36.0601C283.784 25.5149 275.372 16.291 270.325 11.6775L270.115 11.8972Z" stroke="#373435" stroke-width="2.9024" stroke-linejoin="round"/>
<path d="M186.842 87.0285C183.477 88.127 179.481 92.0814 183.687 99.3312C188.734 108.119 200.3 107.46 202.193 107.24C198.197 103.505 196.305 96.4752 192.73 86.1497L186.631 87.0285H186.842Z" fill="#FCD2B5"/>
<path d="M186.842 87.0285C183.477 88.127 179.481 92.0814 183.687 99.3312C188.734 108.119 200.3 107.46 202.193 107.24C198.197 103.505 196.305 96.4752 192.73 86.1497L186.631 87.0285H186.842Z" stroke="#373435" stroke-width="2.9024" stroke-linejoin="round"/>
<path d="M290.093 57.3699C293.458 56.7108 298.925 58.029 298.505 66.3772C298.084 76.7026 287.78 81.9752 285.887 82.6343C287.78 77.3617 286.098 70.3316 284.415 59.3471L290.093 57.1502V57.3699Z" fill="#FCD2B5"/>
<path d="M290.093 57.3699C293.458 56.7108 298.925 58.029 298.505 66.3772C298.084 76.7026 287.78 81.9752 285.887 82.6343C287.78 77.3617 286.098 70.3316 284.415 59.3471L290.093 57.1502V57.3699Z" stroke="#373435" stroke-width="2.9024" stroke-linejoin="round"/>
<path d="M276.844 51.4388C282.312 53.1963 283.363 57.3704 283.363 57.3704C290.093 87.2483 284.835 103.505 271.587 118.005C266.96 122.179 260.231 125.474 260.231 125.474C231.003 137.777 201.562 124.376 189.996 80.8773C189.996 80.8773 222.171 59.5673 240.043 55.3932C236.891 46.3859 234.158 36.2801 236.261 24.4168C236.261 24.4168 252.03 46.1662 276.844 51.4388Z" fill="#FCD2B5"/>
<path d="M276.844 51.4388C282.312 53.1963 283.363 57.3704 283.363 57.3704C290.093 87.2483 284.835 103.505 271.587 118.005C266.96 122.179 260.231 125.474 260.231 125.474C231.003 137.777 201.562 124.376 189.996 80.8773C189.996 80.8773 222.171 59.5673 240.043 55.3932C236.891 46.3859 234.158 36.2801 236.261 24.4168C236.261 24.4168 252.03 46.1662 276.844 51.4388Z" stroke="#373435" stroke-width="2.9024" stroke-linejoin="round"/>
<path d="M260.442 102.406C260.442 102.406 252.451 114.709 238.781 109.436" stroke="#373435" stroke-width="2.21051" stroke-linecap="round" stroke-linejoin="round"/>
<path d="M291.355 102.187L291.984 96.6951" stroke="#373435" stroke-width="2.9024" stroke-linejoin="round"/>
<path d="M220.699 134.042L215.652 129.428" stroke="#373435" stroke-width="2.9024" stroke-linejoin="round"/>
<path d="M225.536 86.5887C225.956 88.3462 221.961 90.9825 216.493 92.5204C211.025 94.0582 206.189 94.0582 205.768 92.3007C205.348 90.5432 209.343 87.9069 214.811 86.369C220.278 84.8312 224.905 84.8312 225.536 86.5887Z" fill="#F8B7B3" fill-opacity="0.702"/>
<path d="M216.283 85.4906L214.811 78.0211C214.811 78.0211 215.021 79.9983 216.283 85.4906Z" fill="#FEFEFE"/>
<path d="M214.811 78.0211C214.811 78.0211 215.021 79.9983 216.283 85.4906" stroke="#373435" stroke-width="3.57218" stroke-linecap="round" stroke-linejoin="round"/>
<path d="M273.69 73.847C274.321 75.6045 270.325 78.4605 265.068 80.218C259.811 81.9755 254.974 82.1952 254.553 80.6574C253.922 78.8999 257.918 76.0439 263.175 74.2864C268.433 72.5288 273.269 72.3092 273.69 73.847Z" fill="#F8B7B3" fill-opacity="0.702"/>
<path d="M260.442 74.5059L259.39 67.6954C259.39 67.6954 259.18 69.0136 260.442 74.5059Z" fill="#FEFEFE"/>
<path d="M259.39 67.6954C259.39 67.6954 259.18 69.0136 260.442 74.5059" stroke="#373435" stroke-width="3.57218" stroke-linecap="round" stroke-linejoin="round"/>
<path d="M238.781 79.7785C241.725 84.392 230.162 84.392 233.106 89.0055C234.789 92.0812 241.936 89.2252 244.459 88.5662" stroke="#373435" stroke-width="2.46693" stroke-linecap="round" stroke-linejoin="round"/>
<path d="M168.337 301.44C168.337 301.44 168.757 300.781 168.967 300.122C168.967 299.683 168.967 299.024 168.547 298.584C166.865 297.046 164.972 295.509 161.607 294.849L158.873 302.099C158.873 302.099 163.079 303.857 168.547 301.44H168.337Z" fill="#73D0F6"/>
<path d="M168.337 301.44C168.337 301.44 168.757 300.781 168.967 300.122C168.967 299.683 168.967 299.024 168.547 298.584C166.865 297.046 164.972 295.509 161.607 294.849L158.873 302.099C158.873 302.099 163.079 303.857 168.547 301.44H168.337Z" stroke="#373435" stroke-width="2.9024" stroke-linejoin="round"/>
<path d="M171.07 273.979C171.07 273.979 171.281 273.32 171.281 272.66C171.281 272.221 171.07 271.562 170.44 271.342C168.547 270.464 164.972 268.926 161.607 269.365L163.92 277.713C163.92 277.713 166.654 278.372 171.281 274.198L171.07 273.979Z" fill="#73D0F6"/>
<path d="M171.07 273.979C171.07 273.979 171.281 273.32 171.281 272.66C171.281 272.221 171.07 271.562 170.44 271.342C168.547 270.464 164.972 268.926 161.607 269.365L163.92 277.713C163.92 277.713 166.654 278.372 171.281 274.198L171.07 273.979Z" stroke="#373435" stroke-width="2.9024" stroke-linejoin="round"/>
<path d="M145.624 253.111L161.396 266.509C161.396 266.509 167.285 273.979 162.658 280.789L152.564 288.698L145.414 253.111H145.624Z" fill="#BEBFC1"/>
<path d="M145.624 253.111L161.396 266.509C161.396 266.509 167.285 273.979 162.658 280.789L152.564 288.698L145.414 253.111H145.624Z" stroke="#373435" stroke-width="2.9024" stroke-linejoin="round"/>
<path d="M142.471 316.379L159.925 304.515C159.925 304.515 166.444 297.705 161.607 290.235L151.093 281.228L142.471 316.379Z" fill="#BEBFC1"/>
<path d="M142.471 316.379L159.925 304.515C159.925 304.515 166.444 297.705 161.607 290.235L151.093 281.228L142.471 316.379Z" stroke="#373435" stroke-width="2.9024" stroke-linejoin="round"/>
<path d="M126.491 325.606C129.222 343.621 131.535 363.612 135.531 379.207L126.912 384.041C126.912 384.041 103.359 360.976 101.677 311.326L103.78 299.023L103.99 290.455L106.934 269.365L102.518 244.104C118.5 210.711 158.243 187.863 158.243 187.863L165.392 195.992C147.097 214.226 138.685 230.483 134.059 241.687C138.265 243.005 145.415 248.717 149.2 255.085C172.963 294.849 140.788 319.015 140.788 319.015C140.788 319.015 131.956 325.167 126.491 326.045V325.606Z" fill="#E4E874"/>
<path d="M126.491 325.606C129.222 343.621 131.535 363.612 135.531 379.207L126.912 384.041C126.912 384.041 103.359 360.976 101.677 311.326L103.78 299.023L103.99 290.455L106.934 269.365L102.518 244.104C118.5 210.711 158.243 187.863 158.243 187.863L165.392 195.992C147.097 214.226 138.685 230.483 134.059 241.687C138.265 243.005 145.415 248.717 149.2 255.085C172.963 294.849 140.788 319.015 140.788 319.015C140.788 319.015 131.956 325.167 126.491 326.045V325.606Z" stroke="#373435" stroke-width="2.9024" stroke-linejoin="round"/>
<path d="M130.274 239.71C131.746 240.369 131.746 240.369 133.007 240.808C134.479 241.468 134.479 241.468 135.741 241.907L130.274 239.71Z" fill="#BB9085"/>
<path d="M130.274 239.71C131.746 240.369 131.746 240.369 133.007 240.808C134.479 241.468 134.479 241.468 135.741 241.907" stroke="#373435" stroke-width="2.9024" stroke-linecap="round" stroke-linejoin="round"/>
<path d="M123.337 326.485C124.599 326.265 124.599 326.265 125.86 325.826C127.122 325.606 127.122 325.606 128.381 325.167L123.547 326.485H123.337Z" fill="#BB9085"/>
<path d="M123.337 326.485C124.599 326.265 124.599 326.265 125.86 325.826C127.122 325.606 127.122 325.606 128.381 325.167" stroke="#373435" stroke-width="2.9024" stroke-linecap="round" stroke-linejoin="round"/>
<path d="M234.368 457.418C234.368 457.418 234.158 456.759 233.527 456.319C233.107 455.88 232.686 455.66 232.055 455.88C229.952 456.539 227.639 457.418 225.326 460.054L229.742 466.425C229.742 466.425 233.527 463.789 234.368 457.418Z" fill="#E9EA7D"/>
<path d="M234.368 457.418C234.368 457.418 234.158 456.759 233.527 456.319C233.107 455.88 232.686 455.66 232.055 455.88C229.952 456.539 227.639 457.418 225.326 460.054L229.742 466.425C229.742 466.425 233.527 463.789 234.368 457.418Z" stroke="#373435" stroke-width="2.9024" stroke-linejoin="round"/>
<path d="M213.339 440.282C213.339 440.282 212.919 439.623 212.288 439.403C211.867 439.183 211.236 439.183 210.606 439.403C208.713 440.721 205.769 443.138 204.297 446.213L212.288 448.63C212.288 448.63 214.181 446.433 213.339 440.282Z" fill="#E9EA7D"/>
<path d="M213.339 440.282C213.339 440.282 212.919 439.623 212.288 439.403C211.867 439.183 211.236 439.183 210.606 439.403C208.713 440.721 205.769 443.138 204.297 446.213L212.288 448.63C212.288 448.63 214.181 446.433 213.339 440.282Z" stroke="#373435" stroke-width="2.9024" stroke-linejoin="round"/>
<path d="M169.177 463.788L166.864 458.735C166.864 458.735 174.435 440.062 200.511 443.137C221.33 445.774 229.952 458.955 235.63 471.697C239.202 480.045 237.312 503.329 229.742 509.041L227.218 513.216L169.177 463.788Z" fill="#F7A092"/>
<path d="M169.177 463.788L166.864 458.735C166.864 458.735 174.435 440.062 200.511 443.137C221.33 445.774 229.952 458.955 235.63 471.697C239.202 480.045 237.312 503.329 229.742 509.041L227.218 513.216L169.177 463.788Z" stroke="#373435" stroke-width="2.9024" stroke-linejoin="round"/>
<path d="M189.576 450.827C182.426 450.827 171.49 455.66 168.126 458.735C159.504 443.796 153.615 431.713 147.727 404.032L136.582 406.229C136.582 406.229 134.058 452.804 152.564 484.659L168.336 500.913L190.837 508.163L190.627 518.049L202.824 524.2C244.039 549.245 281.26 531.23 281.26 531.23V520.465C256.866 515.632 245.931 516.731 230.583 507.284L231.634 493.224C231.634 493.224 234.578 451.046 189.786 450.827H189.576Z" fill="#FEC569"/>
<path d="M189.576 450.827C182.426 450.827 171.49 455.66 168.126 458.735C159.504 443.796 153.615 431.713 147.727 404.032L136.582 406.229C136.582 406.229 134.058 452.804 152.564 484.659L168.336 500.913L190.837 508.163L190.627 518.049L202.824 524.2C244.039 549.245 281.26 531.23 281.26 531.23V520.465C256.866 515.632 245.931 516.731 230.583 507.284L231.634 493.224C231.634 493.224 234.578 451.046 189.786 450.827H189.576Z" stroke="#373435" stroke-width="2.9024" stroke-linejoin="round"/>
<path d="M212.077 556.714C212.077 556.714 190.417 589.228 165.392 590.986C154.667 591.645 129.853 590.986 117.659 558.032C117.659 558.032 99.994 550.343 106.092 523.321C109.037 510.359 116.607 494.542 138.895 477.848L212.077 556.714Z" fill="#BD9E83"/>
<path d="M212.077 556.714C212.077 556.714 190.417 589.228 165.392 590.986C154.667 591.645 129.853 590.986 117.659 558.032C117.659 558.032 99.994 550.343 106.092 523.321C109.037 510.359 116.607 494.542 138.895 477.848L212.077 556.714Z" stroke="#373435" stroke-width="2.9024" stroke-linejoin="round"/>
<path d="M208.712 560.449C211.446 562.866 216.703 564.404 220.489 557.154C225.115 548.147 218.806 538.041 217.755 536.503C216.703 541.995 211.867 547.268 205.137 555.616L208.923 560.669L208.712 560.449Z" fill="#FCD2B5"/>
<path d="M208.712 560.449C211.446 562.866 216.703 564.404 220.489 557.154C225.115 548.147 218.806 538.041 217.755 536.503C216.703 541.995 211.867 547.268 205.137 555.616L208.923 560.669L208.712 560.449Z" stroke="#373435" stroke-width="2.9024" stroke-linejoin="round"/>
<path d="M132.376 482.023C130.063 479.167 128.591 473.674 135.741 469.94C144.573 465.106 154.036 471.917 155.508 473.015C150.251 474.114 145.204 478.947 137.003 485.974L132.376 482.023Z" fill="#FCD2B5"/>
<path d="M132.376 482.023C130.063 479.167 128.591 473.674 135.741 469.94C144.573 465.106 154.036 471.917 155.508 473.015C150.251 474.114 145.204 478.947 137.003 485.974L132.376 482.023Z" stroke="#373435" stroke-width="2.9024" stroke-linejoin="round"/>
<path d="M134.059 496.739C129.222 493.224 135.531 487.951 135.531 487.951C156.981 466.644 172.753 463.349 191.679 468.182C197.357 470.379 203.666 474.773 203.666 474.773C228.48 494.981 232.266 528.154 201.983 560.669C201.983 560.669 160.135 536.503 132.166 547.267C132.166 547.267 142.05 522.223 134.059 496.958V496.739Z" fill="#FCD2B5"/>
<path d="M134.059 496.739C129.222 493.224 135.531 487.951 135.531 487.951C156.981 466.644 172.753 463.349 191.679 468.182C197.357 470.379 203.666 474.773 203.666 474.773C228.48 494.981 232.266 528.154 201.983 560.669C201.983 560.669 160.135 536.503 132.166 547.267C132.166 547.267 142.05 522.223 134.059 496.958V496.739Z" stroke="#373435" stroke-width="2.9024" stroke-linejoin="round"/>
<path d="M168.757 458.296L163.92 460.493" stroke="#373435" stroke-width="2.9024" stroke-linejoin="round"/>
<path d="M230.583 505.966L229.321 512.996" stroke="#373435" stroke-width="2.9024" stroke-linejoin="round"/>
<path d="M179.061 561.987C179.061 561.987 166.023 554.298 145.625 556.275" stroke="#373435" stroke-width="2.9024" stroke-linecap="round" stroke-linejoin="round"/>
<path d="M166.233 566.161C166.233 566.161 157.401 563.525 151.092 564.843" stroke="#373435" stroke-width="2.9024" stroke-linecap="round" stroke-linejoin="round"/>
<path d="M125.65 501.133L126.281 503.11L126.701 505.307L127.122 507.504L127.54 509.481L127.75 511.678L127.96 513.875L128.171 516.072L128.381 518.269V520.465V522.662V524.859L127.96 526.836L127.54 529.033L126.912 531.23" stroke="#373435" stroke-width="2.9024" stroke-linecap="round" stroke-linejoin="round"/>
<path d="M188.945 525.518C190.207 524.2 194.413 526.617 198.408 530.571C202.404 534.745 204.927 538.919 203.666 540.237C202.614 541.556 198.198 539.139 194.203 535.184C190.207 531.01 187.894 526.836 188.945 525.518Z" fill="#F8B7B3" fill-opacity="0.702"/>
<path d="M192.73 534.526L187.262 539.798C187.262 539.798 188.734 538.48 192.73 534.526Z" fill="#FEFEFE"/>
<path d="M187.262 539.579C187.262 539.579 188.734 538.261 192.73 534.306" stroke="#373435" stroke-width="3.57218" stroke-linecap="round" stroke-linejoin="round"/>
<path d="M154.246 488.61C155.298 487.292 159.714 489.269 163.92 493.224C168.126 497.178 170.649 501.352 169.598 502.67C168.546 503.989 164.13 501.792 159.924 498.057C155.719 494.103 153.195 489.928 154.246 488.61Z" fill="#F8B7B3" fill-opacity="0.702"/>
<path d="M161.396 500.254L156.349 504.647C156.349 504.647 157.401 504.208 161.396 500.254Z" fill="#FEFEFE"/>
<path d="M156.349 504.647C156.349 504.647 157.401 504.208 161.396 500.254" stroke="#373435" stroke-width="3.57218" stroke-linecap="round" stroke-linejoin="round"/>
<path d="M176.538 517.17C178.851 512.117 184.529 522.662 187.052 517.829C188.524 514.753 182.847 509.7 180.954 507.943" stroke="#373435" stroke-width="2.46693" stroke-linecap="round" stroke-linejoin="round"/>
<path d="M393.765 470.379C393.765 470.379 393.134 470.379 392.503 470.599C392.082 470.819 391.662 471.038 391.452 471.917C391.031 474.114 390.821 476.75 391.872 480.046L399.232 478.947C399.232 478.947 398.601 474.334 393.765 470.599V470.379Z" fill="#73D0F6"/>
<path d="M393.765 470.379C393.765 470.379 393.134 470.379 392.503 470.599C392.082 470.819 391.662 471.038 391.452 471.917C391.031 474.114 390.821 476.75 391.872 480.046L399.232 478.947C399.232 478.947 398.601 474.334 393.765 470.599V470.379Z" stroke="#373435" stroke-width="2.9024" stroke-linejoin="round"/>
<path d="M369.581 481.803C369.581 481.803 368.95 482.023 368.32 482.462C367.899 482.682 367.478 483.341 367.689 484C367.899 486.194 368.53 490.148 370.422 493.004L376.1 486.633C376.1 486.633 375.259 483.78 369.581 481.803Z" fill="#73D0F6"/>
<path d="M369.581 481.803C369.581 481.803 368.95 482.023 368.32 482.462C367.899 482.682 367.478 483.341 367.689 484C367.899 486.194 368.53 490.148 370.422 493.004L376.1 486.633C376.1 486.633 375.259 483.78 369.581 481.803Z" stroke="#373435" stroke-width="2.9024" stroke-linejoin="round"/>
<path d="M364.954 515.193L368.109 494.103C368.109 494.103 371.263 485.096 379.254 485.758L390.82 490.807L364.954 514.973V515.193Z" fill="#BEB1D7"/>
<path d="M364.954 515.193L368.109 494.103C368.109 494.103 371.263 485.096 379.254 485.758L390.82 490.807L364.954 514.973V515.193Z" stroke="#373435" stroke-width="2.9024" stroke-linejoin="round"/>
<path d="M419 486.413L400.284 476.53C400.284 476.53 391.241 474.114 387.667 482.242L385.564 496.299L419 486.413Z" fill="#BEB1D7"/>
<path d="M419 486.413L400.284 476.53C400.284 476.53 391.241 474.114 387.667 482.242L385.564 496.299L419 486.413Z" stroke="#373435" stroke-width="2.9024" stroke-linejoin="round"/>
<path d="M434.562 496.079C448.021 484.659 463.369 472.356 474.304 460.932L482.716 466.424C482.716 466.424 475.566 499.155 435.193 525.738L424.047 529.912L416.897 534.086L397.971 541.995L379.465 558.691C343.718 560.888 304.814 536.722 304.814 536.722L307.968 526.177C332.362 533.647 350.024 532.987 361.38 531.45C360.328 526.836 361.59 517.609 364.745 511.018C385.564 469.72 421.944 486.633 421.944 486.633C421.944 486.633 431.618 491.686 434.983 496.079H434.562Z" fill="#B3D891"/>
<path d="M434.562 496.079C448.021 484.659 463.369 472.356 474.304 460.932L482.716 466.424C482.716 466.424 475.566 499.155 435.193 525.738L424.047 529.912L416.897 534.086L397.971 541.995L379.465 558.691C343.718 560.888 304.814 536.722 304.814 536.722L307.968 526.177C332.362 533.647 350.024 532.987 361.38 531.45C360.328 526.836 361.59 517.609 364.745 511.018C385.564 469.72 421.944 486.633 421.944 486.633C421.944 486.633 431.618 491.686 434.983 496.079H434.562Z" stroke="#373435" stroke-width="2.9024" stroke-linejoin="round"/>
<path d="M361.8 536.064C361.59 534.526 361.59 534.526 361.38 532.988C361.169 531.45 361.169 531.45 360.959 529.912L361.8 536.064Z" fill="#BB9085"/>
<path d="M361.8 536.064C361.59 534.526 361.59 534.526 361.38 532.988C361.169 531.45 361.169 531.45 360.959 529.912" stroke="#373435" stroke-width="2.9024" stroke-linecap="round" stroke-linejoin="round"/>
<path d="M436.875 498.497C436.034 497.618 436.034 497.618 435.193 496.519C434.352 495.641 434.352 495.641 433.51 494.542L437.085 498.277L436.875 498.497Z" fill="#BB9085"/>
<path d="M436.875 498.497C436.034 497.618 436.034 497.618 435.193 496.519C434.352 495.641 434.352 495.641 433.51 494.542" stroke="#373435" stroke-width="2.9024" stroke-linecap="round" stroke-linejoin="round"/>
<path d="M489.655 333.734C489.655 333.734 489.235 334.394 489.024 335.053C489.024 335.492 489.024 336.151 489.445 336.59C491.127 338.128 493.02 339.666 496.385 340.325L499.329 333.075C499.329 333.075 495.123 331.098 489.655 333.734Z" fill="#E9EA7D"/>
<path d="M489.655 333.734C489.655 333.734 489.235 334.394 489.024 335.053C489.024 335.492 489.024 336.151 489.445 336.59C491.127 338.128 493.02 339.666 496.385 340.325L499.329 333.075C499.329 333.075 495.123 331.098 489.655 333.734Z" stroke="#373435" stroke-width="2.9024" stroke-linejoin="round"/>
<path d="M486.711 361.196C486.711 361.196 486.501 361.855 486.501 362.514C486.501 362.954 486.711 363.613 487.342 363.832C489.235 364.711 492.81 366.249 496.174 366.029L493.861 357.681C493.861 357.681 491.127 357.022 486.501 361.196H486.711Z" fill="#E9EA7D"/>
<path d="M486.711 361.196C486.711 361.196 486.501 361.855 486.501 362.514C486.501 362.954 486.711 363.613 487.342 363.832C489.235 364.711 492.81 366.249 496.174 366.029L493.861 357.681C493.861 357.681 491.127 357.022 486.501 361.196H486.711Z" stroke="#373435" stroke-width="2.9024" stroke-linejoin="round"/>
<path d="M529.191 387.995L526.247 392.609C526.247 392.609 507.11 395.684 495.965 370.859C487.132 351.09 493.231 336.371 500.801 324.728C505.638 317.038 525.616 306.493 534.238 310.228L538.864 310.448L529.191 387.995Z" fill="#FFDF7E"/>
<path d="M529.191 387.995L526.247 392.609C526.247 392.609 507.11 395.684 495.965 370.859C487.132 351.09 493.231 336.371 500.801 324.728C505.638 317.038 525.616 306.493 534.238 310.228L538.864 310.448L529.191 387.995Z" stroke="#373435" stroke-width="2.9024" stroke-linejoin="round"/>
<path d="M507.741 376.791C511.526 383.162 521.199 390.412 525.405 391.73C517.835 407.328 511.105 418.752 491.758 438.524L499.539 447.312C499.539 447.312 538.654 425.123 555.057 391.73L559.893 369.102L554.005 345.378L561.996 340.325L560.524 326.265C559.263 276.395 525.195 252.892 525.195 252.892L516.363 258.601C525.405 282.986 531.924 291.994 532.345 310.448L520.358 317.038C520.358 317.038 484.398 336.81 507.951 376.571L507.741 376.791Z" fill="#F7ADB3"/>
<path d="M507.741 376.791C511.526 383.162 521.199 390.412 525.405 391.73C517.835 407.328 511.105 418.752 491.758 438.524L499.539 447.312C499.539 447.312 538.654 425.123 555.057 391.73L559.893 369.102L554.005 345.378L561.996 340.325L560.524 326.265C559.263 276.395 525.195 252.892 525.195 252.892L516.363 258.601C525.405 282.986 531.924 291.994 532.345 310.448L520.358 317.038C520.358 317.038 484.398 336.81 507.951 376.571L507.741 376.791Z" stroke="#373435" stroke-width="2.9024" stroke-linejoin="round"/>
<path d="M524.774 391.51L529.191 394.586" stroke="#373435" stroke-width="2.9024" stroke-linejoin="round"/>
<path d="M531.294 311.545L537.603 308.689" stroke="#373435" stroke-width="2.9024" stroke-linejoin="round"/>
<path d="M460.425 122.618C460.425 122.618 482.926 134.261 493.441 144.145C493.441 144.145 479.351 151.614 469.257 142.607C459.166 133.602 460.425 122.398 460.425 122.398V122.618Z" fill="#9D7371"/>
<path d="M460.425 122.618C460.425 122.618 482.926 134.261 493.441 144.145C493.441 144.145 479.351 151.614 469.257 142.607C459.166 133.602 460.425 122.398 460.425 122.398V122.618Z" stroke="#373435" stroke-width="2.21051" stroke-linejoin="round"/>
<path d="M200.091 512.117C200.091 512.117 185.791 503.33 178.641 489.269C178.641 489.269 189.787 482.901 197.988 493.883C206.189 504.867 200.091 512.117 200.091 512.117Z" fill="#9D7371"/>
<path d="M200.091 512.117C200.091 512.117 185.791 503.33 178.641 489.269C178.641 489.269 189.787 482.901 197.988 493.883C206.189 504.867 200.091 512.117 200.091 512.117Z" stroke="#373435" stroke-width="2.21051" stroke-linejoin="round"/>
<path d="M282.522 522.003C285.256 518.928 290.303 517.39 295.561 518.049C303.131 519.147 308.809 524.639 307.968 530.351C307.337 536.063 300.397 539.798 292.827 538.7C287.359 538.041 282.943 534.965 281.261 531.23L282.522 522.003Z" fill="#FCD2B5"/>
<path d="M282.522 522.003C285.256 518.928 290.303 517.39 295.561 518.049C303.131 519.147 308.809 524.639 307.968 530.351C307.337 536.063 300.397 539.798 292.827 538.7C287.359 538.041 282.943 534.965 281.261 531.23L282.522 522.003Z" stroke="#373435" stroke-width="2.97313" stroke-linejoin="round"/>
<path d="M309.019 527.495C309.019 527.495 305.234 520.465 302.29 519.806C300.608 518.049 296.191 531.23 290.934 528.374C290.934 528.374 278.317 523.98 283.364 533.207C288.2 542.654 306.496 538.041 306.496 538.041L309.019 527.495Z" fill="#FCD2B5"/>
<path d="M309.019 527.495C309.019 527.495 305.234 520.465 302.29 519.806C300.608 518.049 296.191 531.23 290.934 528.374C290.934 528.374 278.317 523.98 283.364 533.207C288.2 542.654 306.496 538.041 306.496 538.041L309.019 527.495Z" stroke="#373435" stroke-width="2.87366" stroke-linejoin="round"/>
<path d="M475.566 460.932C474.515 456.977 475.776 451.705 479.141 447.311C483.978 441.16 491.338 438.963 495.754 442.478C499.96 446.213 499.54 454.121 494.703 460.273C491.338 464.667 486.501 467.083 482.506 466.644L475.566 460.712V460.932Z" fill="#FCD2B5"/>
<path d="M475.566 460.932C474.515 456.977 475.776 451.705 479.141 447.311C483.978 441.16 491.338 438.963 495.754 442.478C499.96 446.213 499.54 454.121 494.703 460.273C491.338 464.667 486.501 467.083 482.506 466.644L475.566 460.712V460.932Z" stroke="#373435" stroke-width="2.97313" stroke-linejoin="round"/>
<path d="M493.862 440.281C493.862 440.281 486.291 440.061 483.978 442.258C481.665 442.917 490.287 453.682 485.029 456.758C485.029 456.758 474.935 465.546 485.029 466.205C495.124 466.644 501.222 447.97 501.222 447.97L493.862 440.281Z" fill="#FCD2B5"/>
<path d="M493.862 440.281C493.862 440.281 486.291 440.061 483.978 442.258C481.665 442.917 490.287 453.682 485.029 456.758C485.029 456.758 474.935 465.546 485.029 466.205C495.124 466.644 501.222 447.97 501.222 447.97L493.862 440.281Z" stroke="#373435" stroke-width="2.87366" stroke-linejoin="round"/>
<path d="M517.414 258.162C513.629 257.063 509.844 253.328 507.741 248.059C505.007 240.589 506.9 232.681 512.157 230.703C517.204 228.726 523.723 233.12 526.457 240.589C528.349 245.862 527.929 251.354 525.826 254.866L517.414 258.162Z" fill="#FCD2B5"/>
<path d="M517.414 258.162C513.629 257.063 509.844 253.328 507.741 248.059C505.007 240.589 506.9 232.681 512.157 230.703C517.204 228.726 523.723 233.12 526.457 240.589C528.349 245.862 527.929 251.354 525.826 254.866L517.414 258.162Z" stroke="#373435" stroke-width="2.97313" stroke-linejoin="round"/>
<path d="M509.213 231.142C509.213 231.142 505.217 237.953 506.058 241.028C505.427 243.445 518.676 241.028 518.676 247.399C518.676 247.399 520.989 261.017 526.457 252.013C531.924 243.006 519.517 228.286 519.517 228.286L509.423 231.142H509.213Z" fill="#FCD2B5"/>
<path d="M509.213 231.142C509.213 231.142 505.217 237.953 506.058 241.028C505.427 243.445 518.676 241.028 518.676 247.399C518.676 247.399 520.989 261.017 526.457 252.013C531.924 243.006 519.517 228.286 519.517 228.286L509.423 231.142H509.213Z" stroke="#373435" stroke-width="2.87366" stroke-linejoin="round"/>
<path d="M373.577 113.171C371.053 116.467 366.217 118.224 360.749 117.785C352.968 117.126 347.293 112.073 347.714 106.361C348.134 100.649 354.651 96.4747 362.431 97.1338C367.899 97.5732 372.315 100.209 374.418 103.944L373.787 113.171H373.577Z" fill="#FCD2B5"/>
<path d="M373.577 113.171C371.053 116.467 366.217 118.224 360.749 117.785C352.968 117.126 347.293 112.073 347.714 106.361C348.134 100.649 354.651 96.4747 362.431 97.1338C367.899 97.5732 372.315 100.209 374.418 103.944L373.787 113.171H373.577Z" stroke="#373435" stroke-width="2.97313" stroke-linejoin="round"/>
<path d="M346.872 109.217C346.872 109.217 351.075 116.027 354.019 116.467C355.912 118.004 359.487 104.603 364.744 107.24C364.744 107.24 377.572 110.974 372.105 101.967C366.637 92.9597 348.555 98.452 348.555 98.452L346.662 109.217H346.872Z" fill="#FCD2B5"/>
<path d="M346.872 109.217C346.872 109.217 351.075 116.027 354.019 116.467C355.912 118.004 359.487 104.603 364.744 107.24C364.744 107.24 377.572 110.974 372.105 101.967C366.637 92.9597 348.555 98.452 348.555 98.452L346.662 109.217H346.872Z" stroke="#373435" stroke-width="2.87366" stroke-linejoin="round"/>
<path d="M182.216 172.265C183.899 176 183.268 181.492 180.534 186.325C176.538 193.135 169.599 196.431 164.762 193.355C160.135 190.499 159.505 182.371 163.29 175.56C166.024 170.727 170.44 167.651 174.435 167.432L182.006 172.265H182.216Z" fill="#FCD2B5"/>
<path d="M182.216 172.265C183.899 176 183.268 181.492 180.534 186.325C176.538 193.135 169.599 196.431 164.762 193.355C160.135 190.499 159.505 182.371 163.29 175.56C166.024 170.727 170.44 167.651 174.435 167.432L182.006 172.265H182.216Z" stroke="#373435" stroke-width="2.97313" stroke-linejoin="round"/>
<path d="M167.075 195.552C167.075 195.552 174.645 194.673 176.538 192.037C178.641 190.939 168.757 181.712 173.594 177.757C173.594 177.757 182.426 167.432 172.332 168.53C162.238 169.629 158.873 188.961 158.873 188.961L167.285 195.552H167.075Z" fill="#FCD2B5"/>
<path d="M167.075 195.552C167.075 195.552 174.645 194.673 176.538 192.037C178.641 190.939 168.757 181.712 173.594 177.757C173.594 177.757 182.426 167.432 172.332 168.53C162.238 169.629 158.873 188.961 158.873 188.961L167.285 195.552H167.075Z" stroke="#373435" stroke-width="2.87366" stroke-linejoin="round"/>
<path d="M135.11 377.45C139.106 377.889 143.311 380.965 146.045 386.018C149.831 393.048 148.989 400.957 144.153 403.813C139.316 406.669 132.376 403.154 128.591 396.124C125.86 391.071 125.65 385.798 127.332 381.844L135.11 377.23V377.45Z" fill="#FCD2B5"/>
<path d="M135.11 377.45C139.106 377.889 143.311 380.965 146.045 386.018C149.831 393.048 148.989 400.957 144.153 403.813C139.316 406.669 132.376 403.154 128.591 396.124C125.86 391.071 125.65 385.798 127.332 381.844L135.11 377.23V377.45Z" stroke="#373435" stroke-width="2.97313" stroke-linejoin="round"/>
<path d="M146.676 402.934C146.676 402.934 149.831 395.684 148.569 392.609C148.779 390.192 136.162 394.366 135.32 388.215C135.32 388.215 131.115 375.034 126.912 384.7C122.706 394.366 137.003 407.108 137.003 407.108L146.676 402.934Z" fill="#FCD2B5"/>
<path d="M146.676 402.934C146.676 402.934 149.831 395.684 148.569 392.609C148.779 390.192 136.162 394.366 135.32 388.215C135.32 388.215 131.115 375.034 126.912 384.7C122.706 394.366 137.003 407.108 137.003 407.108L146.676 402.934Z" stroke="#373435" stroke-width="2.87366" stroke-linejoin="round"/>
<path d="M281.681 40.893L245.511 17.6089C245.511 17.6089 260.862 36.9386 281.681 40.893Z" fill="#BD9E83"/>
<path d="M245.511 17.6089C245.511 17.6089 260.862 36.9386 281.681 40.893" stroke="#373435" stroke-width="2.9024" stroke-linecap="round" stroke-linejoin="round"/>
<path d="M279.789 29.4692L264.228 22.6588C264.228 22.6588 275.373 29.2496 279.789 29.4692Z" fill="#BD9E83"/>
<path d="M264.228 22.6588C264.228 22.6588 275.373 29.2496 279.789 29.4692" stroke="#373435" stroke-width="2.9024" stroke-linecap="round" stroke-linejoin="round"/>
<path d="M219.438 62.6427L223.644 18.7077C223.644 18.7077 213.76 44.6281 219.438 62.6427Z" fill="#BD9E83"/>
<path d="M223.644 18.7077C223.644 18.7077 213.76 44.6281 219.438 62.6427" stroke="#373435" stroke-width="2.9024" stroke-linecap="round" stroke-linejoin="round"/>
<path d="M203.665 71.6499L200.511 48.143C200.511 49.4612 199.039 61.9835 203.665 71.6499Z" fill="#BD9E83"/>
<path d="M200.511 48.143C200.511 49.4612 199.039 61.9835 203.665 71.6499" stroke="#373435" stroke-width="2.9024" stroke-linecap="round" stroke-linejoin="round"/>
<path d="M194.202 76.9222L191.469 64.8393C191.469 64.8393 193.151 75.3844 194.202 76.9222Z" fill="#BD9E83"/>
<path d="M191.469 64.8393C191.469 64.8393 193.151 75.3844 194.202 76.9222" stroke="#373435" stroke-width="2.9024" stroke-linecap="round" stroke-linejoin="round"/>
<path d="M511.105 92.74L499.329 57.3699C499.119 58.0289 503.114 78.4601 511.105 92.74Z" fill="#FCD2B5"/>
<path d="M499.329 57.3699C499.119 58.0289 503.114 78.4601 511.105 92.74" stroke="#373435" stroke-width="2.9024" stroke-linecap="round" stroke-linejoin="round"/>
<path d="M518.256 81.9752L509.213 55.173C509.213 55.173 514.26 74.7255 518.256 81.9752Z" fill="#FCD2B5"/>
<path d="M509.003 54.9533C509.003 54.9533 514.05 74.5057 518.045 81.7555" stroke="#373435" stroke-width="2.9024" stroke-linecap="round" stroke-linejoin="round"/>
<path d="M441.501 138.433L440.029 151.395L454.119 153.372L457.694 168.091L469.467 164.576" stroke="#373435" stroke-width="2.9024" stroke-linecap="round" stroke-linejoin="round"/>
<path d="M231.634 129.868C231.634 129.868 244.039 140.19 253.502 134.921C253.502 134.921 258.128 131.845 258.759 126.133C258.759 126.133 265.699 129.648 270.746 127.451C274.952 125.694 277.686 117.345 277.686 110.755" stroke="#373435" stroke-width="2.9024" stroke-linecap="round" stroke-linejoin="round"/>
<path d="M134.269 279.032C134.269 292.213 127.122 302.758 118.079 302.758C109.247 302.758 101.887 292.213 101.887 279.032C101.887 265.85 109.037 255.305 118.079 255.305C126.912 255.305 134.269 265.85 134.269 279.032Z" stroke="#373435" stroke-width="2.9024" stroke-linecap="round" stroke-linejoin="round"/>
<path d="M66.3471 326.046C66.3471 326.046 64.6648 328.243 62.7722 334.833C62.7722 334.833 14.618 330.659 5.15477 291.994C5.15477 291.994 -4.30842 265.411 9.36063 246.741C9.36063 246.741 13.1459 211.59 55.6222 211.59C55.6222 211.59 75.3898 207.196 88.2176 220.158L82.1191 246.521L66.3471 326.046Z" fill="#BD9E83"/>
<path d="M66.3471 326.046C66.3471 326.046 64.6648 328.243 62.7722 334.833C62.7722 334.833 14.618 330.659 5.15477 291.994C5.15477 291.994 -4.30842 265.411 9.36063 246.741C9.36063 246.741 13.1459 211.59 55.6222 211.59C55.6222 211.59 75.3898 207.196 88.2176 220.158L82.1191 246.521L66.3471 326.046Z" stroke="#373435" stroke-width="2.9024" stroke-linejoin="round"/>
<path d="M64.2442 330.439C63.8236 334.174 65.5059 339.446 73.4971 338.568C83.3808 337.469 87.5867 326.265 88.2176 324.288C83.1705 326.485 76.4412 325.386 65.9265 324.288L64.2442 330.439Z" fill="#FCD2B5"/>
<path d="M64.2442 330.439C63.8236 334.174 65.5059 339.446 73.4971 338.568C83.3808 337.469 87.5867 326.265 88.2176 324.288C83.1705 326.485 76.4412 325.386 65.9265 324.288L64.2442 330.439Z" stroke="#373435" stroke-width="2.9024" stroke-linejoin="round"/>
<path d="M82.5396 220.157C83.3808 216.642 86.9558 212.249 93.8955 215.983C102.728 220.817 102.728 232.68 102.728 234.877C98.9425 230.922 92.2131 229.384 81.9088 226.528L82.3293 220.157H82.5396Z" fill="#FCD2B5"/>
<path d="M82.5396 220.157C83.3808 216.642 86.9558 212.249 93.8955 215.983C102.728 220.817 102.728 232.68 102.728 234.877C98.9425 230.922 92.2131 229.384 81.9088 226.528L82.3293 220.157H82.5396Z" stroke="#373435" stroke-width="2.9024" stroke-linejoin="round"/>
<path d="M127.122 263.433C120.182 244.543 108.406 232.899 79.5957 226.528C79.5957 226.528 71.8148 224.112 71.8148 230.263C68.4501 235.536 64.034 244.763 64.034 244.763C60.459 248.937 47.0002 249.815 47.0002 249.815L60.459 254.426C55.8325 266.289 54.1502 293.751 54.1502 293.751C52.0473 296.167 34.3826 299.682 34.3826 299.682C38.3782 301.22 54.1502 304.515 54.1502 304.515C53.5193 312.205 57.3046 324.947 57.3046 324.947C103.569 332.855 126.701 310.447 128.381 277.493C128.381 277.493 128.381 269.585 126.701 263.653L127.122 263.433Z" fill="#FCD2B5"/>
<path d="M127.122 263.433C120.182 244.543 108.406 232.899 79.5957 226.528C79.5957 226.528 71.8148 224.112 71.8148 230.263C68.4501 235.536 64.034 244.763 64.034 244.763C60.459 248.937 47.0002 249.815 47.0002 249.815L60.459 254.426C55.8325 266.289 54.1502 293.751 54.1502 293.751C52.0473 296.167 34.3826 299.682 34.3826 299.682C38.3782 301.22 54.1502 304.515 54.1502 304.515C53.5193 312.205 57.3046 324.947 57.3046 324.947C103.569 332.855 126.701 310.447 128.381 277.493C128.381 277.493 128.381 269.585 126.701 263.653L127.122 263.433Z" stroke="#373435" stroke-width="2.9024" stroke-linejoin="round"/>
<path d="M101.887 256.623C101.887 256.623 113.874 278.153 99.9944 298.584" stroke="#373435" stroke-width="2.21051" stroke-linecap="round" stroke-linejoin="round"/>
<path d="M24.9195 279.251L27.0225 280.13L28.9151 281.009L31.018 281.888L33.121 282.547L35.0136 283.425L37.1165 284.085L39.2195 284.744L41.3224 285.183L43.6356 285.842L45.7385 286.281L47.8415 286.721L49.9444 286.94H52.2576H54.3606" stroke="#373435" stroke-width="2.9024" stroke-linecap="round" stroke-linejoin="round"/>
<path d="M41.743 273.1L43.8459 273.759L45.9488 274.418L48.0517 275.077L50.365 275.736L52.4679 276.176L54.7811 276.396" stroke="#373435" stroke-width="2.9024" stroke-linecap="round" stroke-linejoin="round"/>
<path d="M47.8412 236.195L49.9441 236.635L52.047 237.294L54.15 237.733L56.2529 238.392L58.5661 239.051L60.4587 239.93L62.5617 240.589L64.4543 241.907" stroke="#373435" stroke-width="2.9024" stroke-linecap="round" stroke-linejoin="round"/>
<path d="M61.09 228.067L62.9827 228.726L64.8753 229.385L66.7679 230.263L68.6606 230.923L70.3429 232.021" stroke="#373435" stroke-width="2.9024" stroke-linecap="round" stroke-linejoin="round"/>
<path d="M44.2665 317.478L46.3694 317.917L48.6826 318.356L50.9959 318.796L53.0988 319.015L55.412 319.235" stroke="#373435" stroke-width="2.9024" stroke-linecap="round" stroke-linejoin="round"/>
<path d="M80.0162 291.993C81.6986 291.993 82.5398 296.827 82.3295 302.319C81.9089 307.811 80.4368 312.425 78.7545 312.205C77.0721 311.985 76.231 307.591 76.6516 301.879C77.0721 296.387 78.5442 291.774 80.2265 291.993H80.0162Z" fill="#F8B7B3" fill-opacity="0.702"/>
<path d="M76.0203 300.342L69.0806 299.463C69.0806 299.463 70.9733 299.902 76.0203 300.342Z" fill="#FEFEFE"/>
<path d="M69.0806 299.243C69.0806 299.243 70.9733 299.682 76.0203 300.122" stroke="#373435" stroke-width="3.39313" stroke-linecap="round" stroke-linejoin="round"/>
<path d="M84.4321 243.006C86.1144 243.006 87.1659 247.619 87.1659 253.108C86.9556 258.601 85.6938 263.214 84.0115 263.214C82.3291 263.214 81.2776 258.601 81.2776 253.108C81.4879 247.619 82.7497 243.006 84.4321 243.006Z" fill="#F8B7B3" fill-opacity="0.702"/>
<path d="M80.8573 255.525L74.7588 254.426C74.7588 254.426 75.8103 254.866 80.8573 255.525Z" fill="#FEFEFE"/>
<path d="M74.5484 254.426C74.5484 254.426 75.5998 254.866 80.6469 255.525" stroke="#373435" stroke-width="3.39313" stroke-linecap="round" stroke-linejoin="round"/>
<path d="M78.3334 277.494C83.3804 276.176 79.5952 286.941 84.2216 285.842C87.376 285.183 87.376 277.714 87.376 275.077" stroke="#373435" stroke-width="2.34314" stroke-linecap="round" stroke-linejoin="round"/>
<path d="M209.764 470.599C209.764 471.917 208.713 472.795 207.661 472.795C206.399 472.795 205.558 471.697 205.558 470.599C205.558 469.28 206.61 468.402 207.661 468.402C208.923 468.402 209.764 469.5 209.764 470.599Z" fill="#373435"/>
<path d="M213.76 463.129C213.76 464.008 213.129 464.667 212.288 464.667C211.446 464.667 210.816 464.008 210.816 463.129C210.816 462.25 211.446 461.591 212.288 461.591C213.129 461.591 213.76 462.25 213.76 463.129Z" fill="#373435"/>
<path d="M391.662 528.594L394.396 506.845L415.004 519.806L392.293 529.253" stroke="#373435" stroke-width="2.9024" stroke-linecap="round" stroke-linejoin="round"/>
<path d="M438.978 641.951C438.978 641.951 457.484 635.58 469.678 621.3C482.927 605.922 489.235 581.32 468.206 546.609L371.684 581.979C371.684 581.979 372.736 633.603 409.958 642.61C417.949 644.588 427.622 644.588 438.978 641.732V641.951Z" fill="#BD9E83"/>
<path d="M438.978 641.951C438.978 641.951 457.484 635.58 469.678 621.3C482.927 605.922 489.235 581.32 468.206 546.609L371.684 581.979C371.684 581.979 372.736 633.603 409.958 642.61C417.949 644.588 427.622 644.588 438.978 641.732V641.951Z" stroke="#373435" stroke-width="2.9024" stroke-linejoin="round"/>
<path d="M469.888 549.904C473.043 548.367 476.828 544.192 471.991 537.382C466.103 529.034 454.75 530.791 452.858 531.231C457.274 534.526 459.584 541.336 464 551.223L469.888 549.685V549.904Z" fill="#FCD2B5"/>
<path d="M469.888 549.904C473.043 548.367 476.828 544.192 471.991 537.382C466.103 529.034 454.75 530.791 452.858 531.231C457.274 534.526 459.584 541.336 464 551.223L469.888 549.685V549.904Z" stroke="#373435" stroke-width="2.9024" stroke-linejoin="round"/>
<path d="M369.581 588.79C366.216 589.888 360.749 588.79 360.328 580.441C359.908 570.116 369.791 563.965 371.474 563.086C370.002 568.578 372.315 575.389 375.049 586.153L369.581 589.009V588.79Z" fill="#FCD2B5"/>
<path d="M369.581 588.79C366.216 589.888 360.749 588.79 360.328 580.441C359.908 570.116 369.791 563.965 371.474 563.086C370.002 568.578 372.315 575.389 375.049 586.153L369.581 589.009V588.79Z" stroke="#373435" stroke-width="2.9024" stroke-linejoin="round"/>
<path d="M376.1 588.13C366.847 558.911 370.633 542.435 382.83 526.617C387.035 522.223 393.555 518.049 393.555 518.049C421.734 503.11 451.806 512.776 468.626 558.472C468.626 558.472 478.089 591.426 452.857 608.119L452.016 592.304L435.193 614.71L432.249 598.456C432.249 598.456 423.837 615.808 421.944 620.202C421.944 620.202 397.13 631.626 376.1 588.13Z" fill="#FCD2B5"/>
<path d="M376.1 588.13C366.847 558.911 370.633 542.435 382.83 526.617C387.035 522.223 393.555 518.049 393.555 518.049C421.734 503.11 451.806 512.776 468.626 558.472C468.626 558.472 478.09 591.426 452.857 608.119L452.016 592.304L435.193 614.71L432.249 598.456C432.249 598.456 423.837 615.808 421.944 620.202C421.944 620.202 397.13 631.626 376.1 588.13Z" stroke="#373435" stroke-width="2.9024" stroke-linejoin="round"/>
<path d="M393.765 545.51C393.765 545.51 398.601 531.45 413.322 533.207" stroke="#373435" stroke-width="2.21051" stroke-linecap="round" stroke-linejoin="round"/>
<path d="M430.356 554.957C429.725 553.419 432.879 550.343 437.716 547.707C442.553 545.29 446.969 544.412 447.6 545.949C448.231 547.487 445.076 550.563 440.24 553.199C435.403 555.616 430.987 556.495 430.356 554.957Z" fill="#F8B7B3" fill-opacity="0.702"/>
<path d="M439.189 554.298L441.922 561.108C441.922 561.108 441.292 559.131 439.189 554.298Z" fill="#FEFEFE"/>
<path d="M441.712 561.108C441.712 561.108 441.081 559.131 438.978 554.298" stroke="#373435" stroke-width="3.39313" stroke-linecap="round" stroke-linejoin="round"/>
<path d="M387.456 575.607C386.615 574.069 389.769 570.774 394.606 568.138C399.233 565.501 403.649 564.403 404.49 565.941C405.331 567.479 402.177 570.774 397.34 573.41C392.714 576.047 388.297 577.145 387.456 575.607Z" fill="#F8B7B3" fill-opacity="0.702"/>
<path d="M399.653 572.532L401.756 578.683C401.756 578.683 401.546 577.365 399.653 572.532Z" fill="#FEFEFE"/>
<path d="M401.756 578.683C401.756 578.683 401.546 577.365 399.653 572.532" stroke="#373435" stroke-width="3.39313" stroke-linecap="round" stroke-linejoin="round"/>
<path d="M419.211 563.745C415.636 559.79 426.361 558.033 423.206 554.078C421.103 551.662 414.794 555.396 412.691 556.495" stroke="#373435" stroke-width="2.34314" stroke-linecap="round" stroke-linejoin="round"/>
<path d="M429.304 615.369L425.939 636.24C425.939 636.24 424.677 626.134 429.304 615.369Z" fill="#BD9E83"/>
<path d="M425.939 636.24C425.939 636.24 424.677 626.134 429.304 615.369" stroke="#373435" stroke-width="2.9024" stroke-linecap="round" stroke-linejoin="round"/>
<path d="M447.6 607.24L436.875 632.944C436.875 632.944 442.132 616.248 447.6 607.24Z" fill="#BD9E83"/>
<path d="M436.875 633.164C436.875 633.164 442.132 616.468 447.6 607.46" stroke="#373435" stroke-width="2.9024" stroke-linecap="round" stroke-linejoin="round"/>
<path d="M458.114 612.074L446.548 628.111C446.548 628.111 450.544 615.808 458.114 612.074Z" fill="#BD9E83"/>
<path d="M446.548 628.111C446.548 628.111 450.544 615.808 458.114 612.074" stroke="#373435" stroke-width="2.9024" stroke-linecap="round" stroke-linejoin="round"/>
<path d="M533.397 331.977C533.607 336.151 530.453 339.666 526.457 339.886C522.462 340.106 519.097 336.811 518.887 332.636C518.676 328.462 521.831 324.947 525.826 324.728C529.822 324.508 533.187 327.803 533.397 331.977Z" stroke="#373435" stroke-width="2.9024" stroke-linecap="round" stroke-linejoin="round"/>
<path d="M528.56 346.037C528.77 350.211 525.616 353.726 521.62 353.946C517.625 354.166 514.26 350.87 514.05 346.696C513.839 342.522 516.994 339.007 520.989 338.787C524.985 338.568 528.35 341.863 528.56 346.037Z" stroke="#373435" stroke-width="2.9024" stroke-linecap="round" stroke-linejoin="round"/>
<path d="M529.822 360.756C530.032 364.931 526.878 368.446 522.882 368.665C518.887 368.885 515.522 365.59 515.312 361.415C515.102 357.241 518.256 353.726 522.251 353.507C526.247 353.287 529.612 356.582 529.822 360.756Z" stroke="#373435" stroke-width="2.9024" stroke-linecap="round" stroke-linejoin="round"/>
<path d="M572.508 413.04C572.508 413.04 575.032 430.395 553.375 445.993C553.375 445.993 549.589 437.645 548.327 434.789L533.397 434.35C533.397 434.35 535.079 413.918 567.254 406.229L572.508 413.259V413.04Z" fill="#BD9E83"/>
<path d="M572.508 413.04C572.508 413.04 575.032 430.395 553.375 445.993C553.375 445.993 549.589 437.645 548.327 434.789L533.397 434.35C533.397 434.35 535.079 413.918 567.254 406.229L572.508 413.259V413.04Z" stroke="#373435" stroke-width="2.9024" stroke-linejoin="round"/>
<path d="M557.58 412.161L546.224 426.002C546.224 426.002 551.271 415.237 557.58 412.161Z" fill="#FEFEFE"/>
<path d="M546.014 426.002C546.014 426.002 551.061 415.237 557.37 412.161" stroke="#373435" stroke-width="2.9024" stroke-linecap="round" stroke-linejoin="round"/>
<path d="M555.478 427.1L563.469 411.282C563.469 411.282 560.314 423.585 555.478 427.1Z" fill="#FEFEFE"/>
<path d="M563.258 411.282C563.258 411.282 560.104 423.585 555.267 427.1" stroke="#373435" stroke-width="2.9024" stroke-linecap="round" stroke-linejoin="round"/>
<path d="M595.64 303.857C595.64 303.857 605.734 290.016 593.958 265.411C593.958 265.411 586.808 270.684 584.495 272.881L571.036 265.85C571.036 265.85 563.258 284.744 587.859 307.592L595.64 304.077V303.857Z" fill="#BD9E83"/>
<path d="M595.64 303.857C595.64 303.857 605.734 290.016 593.958 265.411C593.958 265.411 586.808 270.684 584.495 272.881L571.036 265.85C571.036 265.85 563.258 284.744 587.859 307.592L595.64 304.077V303.857Z" stroke="#373435" stroke-width="2.9024" stroke-linejoin="round"/>
<path d="M590.803 301.001L586.808 283.426C586.808 283.426 591.014 291.554 590.803 301.001Z" fill="#FEFEFE"/>
<path d="M586.808 283.645C586.808 283.645 591.014 291.773 590.803 301.22" stroke="#373435" stroke-width="2.9024" stroke-linecap="round" stroke-linejoin="round"/>
<path d="M583.443 293.532L579.447 285.842C579.447 285.842 580.289 290.016 583.443 293.532Z" fill="#FEFEFE"/>
<path d="M579.447 285.623C579.447 285.623 580.289 289.797 583.443 293.312" stroke="#373435" stroke-width="2.9024" stroke-linecap="round" stroke-linejoin="round"/>
<path d="M582.181 301.22C582.181 301.22 620.034 303.417 634.544 324.727C640.853 333.954 653.26 356.362 632.862 384.48C632.862 384.48 635.806 404.252 610.781 413.04C598.584 417.214 581.761 418.751 556.529 407.767L582.392 301.22H582.181Z" fill="#BD9E83"/>
<path d="M582.181 301.22C582.181 301.22 620.034 303.417 634.544 324.727C640.853 333.954 653.261 356.362 632.862 384.48C632.862 384.48 635.806 404.252 610.781 413.04C598.584 417.214 581.761 418.751 556.529 407.767L582.392 301.22H582.181Z" stroke="#373435" stroke-width="2.9024" stroke-linejoin="round"/>
<path d="M587.018 302.099C587.649 298.365 586.177 292.872 578.186 293.532C568.305 294.191 563.468 305.175 562.837 306.933C567.884 304.955 574.611 306.493 585.125 308.251L587.228 302.319L587.018 302.099Z" fill="#FCD2B5"/>
<path d="M587.018 302.099C587.649 298.365 586.177 292.872 578.186 293.532C568.305 294.191 563.468 305.175 562.837 306.933C567.884 304.955 574.611 306.493 585.125 308.251L587.228 302.319L587.018 302.099Z" stroke="#373435" stroke-width="2.9024" stroke-linejoin="round"/>
<path d="M563.258 411.283C562.207 414.798 558.421 418.972 551.692 414.798C543.07 409.525 543.701 397.442 543.701 395.465C547.276 399.639 554.005 401.397 564.099 404.912L563.258 411.283Z" fill="#FCD2B5"/>
<path d="M563.258 411.283C562.207 414.798 558.421 418.972 551.692 414.798C543.07 409.525 543.701 397.442 543.701 395.465C547.276 399.639 554.005 401.397 564.099 404.912L563.258 411.283Z" stroke="#373435" stroke-width="2.9024" stroke-linejoin="round"/>
<path d="M574.401 401.835C573.98 407.986 566.413 405.13 566.413 405.13C537.813 397.222 526.877 384.919 520.779 365.809C519.517 359.658 519.728 351.749 519.728 351.749C523.092 319.015 548.327 298.144 590.593 308.03C590.593 308.03 592.907 357.9 616.459 377.01C616.459 377.01 590.804 381.404 574.611 401.835H574.401Z" fill="#FCD2B5"/>
<path d="M574.401 401.835C573.98 407.986 566.413 405.13 566.413 405.13C537.813 397.222 526.877 384.919 520.779 365.809C519.517 359.658 519.728 351.749 519.728 351.749C523.092 319.015 548.327 298.144 590.593 308.03C590.593 308.03 592.907 357.9 616.459 377.01C616.459 377.01 590.804 381.404 574.611 401.835H574.401Z" stroke="#373435" stroke-width="2.9024" stroke-linejoin="round"/>
<path d="M539.285 362.953C539.285 362.953 532.556 349.772 543.701 339.666" stroke="#373435" stroke-width="2.21051" stroke-linecap="round" stroke-linejoin="round"/>
<path d="M603.842 327.583C603.842 327.583 604.472 343.181 616.669 360.317" stroke="#373435" stroke-width="2.9024" stroke-linecap="round" stroke-linejoin="round"/>
<path d="M613.936 337.03C613.936 337.03 616.459 346.257 620.876 351.09" stroke="#373435" stroke-width="2.9024" stroke-linecap="round" stroke-linejoin="round"/>
<path d="M582.392 407.108L583.864 405.571L585.336 404.033L586.808 402.495L588.28 401.177L589.962 399.859L591.645 398.321L593.117 397.003L594.799 395.685L596.692 394.586L598.374 393.488L600.267 392.389L602.159 391.51L604.052 390.851L606.155 390.192" stroke="#373435" stroke-width="2.9024" stroke-linecap="round" stroke-linejoin="round"/>
<path d="M568.936 338.128C567.253 337.689 566.833 332.856 568.095 327.144C569.356 321.432 571.667 317.038 573.139 317.477C574.821 317.917 575.242 322.75 573.98 328.462C572.718 334.174 570.405 338.568 568.936 338.128Z" fill="#F8B7B3" fill-opacity="0.702"/>
<path d="M574.4 330.22L581.55 332.417C581.55 332.417 579.658 331.758 574.4 330.22Z" fill="#FEFEFE"/>
<path d="M581.34 332.197C581.34 332.197 579.447 331.538 574.19 330" stroke="#373435" stroke-width="3.57218" stroke-linecap="round" stroke-linejoin="round"/>
<path d="M557.159 388.435C555.477 388.215 554.846 383.162 555.898 377.45C556.739 371.738 558.842 367.128 560.524 367.567C562.206 367.787 562.837 372.837 561.786 378.549C560.945 384.261 558.842 388.874 557.159 388.435Z" fill="#F8B7B3" fill-opacity="0.702"/>
<path d="M562.837 375.912L569.143 378.109C569.143 378.109 568.094 377.45 562.837 375.912Z" fill="#FEFEFE"/>
<path d="M569.146 378.109C569.146 378.109 568.094 377.45 562.837 375.912" stroke="#373435" stroke-width="3.57218" stroke-linecap="round" stroke-linejoin="round"/>
<path d="M568.726 353.507C563.468 353.946 568.936 343.401 563.679 343.84C560.314 344.06 559.263 351.969 558.842 354.385" stroke="#373435" stroke-width="2.46693" stroke-linecap="round" stroke-linejoin="round"/>
<path d="M630.339 384.26L628.236 383.601L626.343 382.942L624.24 382.064L622.348 380.965L620.455 380.086L618.562 378.988L616.67 377.889L614.777 376.791L612.884 375.473L611.202 374.155L609.52 372.837L607.837 371.518L606.155 369.981L604.683 368.446L603.001 366.908L601.318 365.37L600.057 363.613L598.584 361.855L597.112 360.317L595.851 358.34L594.379 356.802L593.117 354.825L591.855 353.067L590.804 351.09L589.542 349.113L588.49 347.136L587.439 345.159" stroke="#373435" stroke-width="2.9024" stroke-linecap="round" stroke-linejoin="round"/>
<path d="M611.833 376.352L609.94 375.473L607.837 374.814L605.945 373.935L604.052 373.056L602.159 372.177L600.267 371.079L598.374 369.981L596.482 368.885L594.799 367.787L593.117 366.249L591.434 364.931L589.962 363.393L588.49 361.855L587.229 360.098" stroke="#373435" stroke-width="2.9024" stroke-linecap="round" stroke-linejoin="round"/>
<path d="M104.83 536.064L83.5909 539.579C83.5909 539.579 95.157 528.594 104.83 536.064Z" fill="#BD9E83"/>
<path d="M83.5909 539.798C83.5909 539.798 95.157 528.814 104.83 536.283" stroke="#373435" stroke-width="2.9024" stroke-linecap="round" stroke-linejoin="round"/>
<path d="M107.144 547.268L93.8955 543.972C93.8955 543.972 101.466 539.798 107.144 547.268Z" fill="#BD9E83"/>
<path d="M93.8955 543.972C93.8955 543.972 101.466 539.798 107.144 547.268" stroke="#373435" stroke-width="2.9024" stroke-linecap="round" stroke-linejoin="round"/>
</svg>
